<svg xmlns="http://www.w3.org/2000/svg" viewBox="0 0 900 520" width="900" height="520" role="img" aria-labelledby="t d">
  <title id="t">Imagen rasterizada</title>
  <desc id="d">Una escena convertida en una cuadrícula de píxeles de diferentes colores.</desc>
  <rect width="900" height="520" rx="28" fill="#101b27"/>
  <rect x="92" y="72" width="330" height="376" rx="24" fill="#0f2836"/>
  <g transform="translate(122 105)">
    <rect width="270" height="300" fill="#91d7ff"/>
    <rect y="178" width="270" height="122" fill="#6cae69"/>
    <circle cx="216" cy="72" r="34" fill="#ffd56a"/>
    <rect x="0" y="155" width="270" height="12" fill="#d9ecf7" opacity="0.5"/>
  </g>
  <g transform="translate(490 82)">
    <rect width="300" height="356" rx="22" fill="#f7f4ea"/>
    <g stroke="#d9d1c5" stroke-width="2">
      <line x1="0" y1="44" x2="300" y2="44"/><line x1="0" y1="88" x2="300" y2="88"/><line x1="0" y1="132" x2="300" y2="132"/><line x1="0" y1="176" x2="300" y2="176"/><line x1="0" y1="220" x2="300" y2="220"/><line x1="0" y1="264" x2="300" y2="264"/><line x1="0" y1="308" x2="300" y2="308"/>
      <line x1="42" y1="0" x2="42" y2="356"/><line x1="84" y1="0" x2="84" y2="356"/><line x1="126" y1="0" x2="126" y2="356"/><line x1="168" y1="0" x2="168" y2="356"/><line x1="210" y1="0" x2="210" y2="356"/><line x1="252" y1="0" x2="252" y2="356"/>
    </g>
    <g>
      <rect width="300" height="176" fill="#91d7ff"/>
      <rect y="176" width="300" height="180" fill="#6cae69"/>
      <rect x="210" y="38" width="44" height="44" fill="#ffd56a"/>
      <rect x="168" y="38" width="44" height="44" fill="#f8c24f"/>
      <rect x="210" y="82" width="44" height="44" fill="#ffe18e"/>
      <rect y="154" width="300" height="22" fill="#d9ecf7" opacity="0.6"/>
    </g>
  </g>
  <text x="110" y="58" font-family="Arial, sans-serif" font-size="22" fill="#dff2ff">Fotografía como escena</text>
  <text x="500" y="58" font-family="Arial, sans-serif" font-size="22" fill="#dff2ff">La misma imagen guardada píxel por píxel</text>
</svg>
